<svg width="1600" height="1000" viewBox="0 0 1600 1000" xmlns="http://www.w3.org/2000/svg">
  <defs>
    <linearGradient id="bg" x1="0%" y1="0%" x2="100%" y2="100%">
      <stop offset="0%" stop-color="#3d1f20" />
      <stop offset="55%" stop-color="#7a3d3a" />
      <stop offset="100%" stop-color="#c89161" />
    </linearGradient>
    <radialGradient id="glow" cx="50%" cy="40%" r="60%">
      <stop offset="0%" stop-color="#fff4d6" stop-opacity="0.75" />
      <stop offset="100%" stop-color="#fff4d6" stop-opacity="0" />
    </radialGradient>
  </defs>
  <rect width="1600" height="1000" fill="url(#bg)" />
  <rect width="1600" height="1000" fill="url(#glow)" />
  <ellipse cx="1100" cy="280" rx="320" ry="220" fill="#f7d5b3" opacity="0.25" />
  <ellipse cx="420" cy="780" rx="360" ry="220" fill="#1d1213" opacity="0.3" />
  <path d="M290 790c60-190 155-320 260-390 120-80 270-102 400-70 130 32 240 118 310 250-65-20-135-29-200-24-90 6-179 37-248 91-95 75-165 153-262 181-60 17-118 16-260-38Z" fill="#f1dccc" opacity="0.22" />
  <path d="M420 420c60-70 135-110 220-117 96-8 177 33 238 107-40 28-82 47-129 58-73 17-150 15-220-8-44-15-84-31-109-40Z" fill="#fff7e9" opacity="0.18" />
</svg>
